# xmcd
#
# Track frame offsets:
#	150
#	9437
#	29450
#	42145
#	52091
#	65966
#	77373
#	88014
#	105663
#	117300
#	133902
#	145684
#
# Disc length: 2111 seconds
# Revision: 1
# Processed by: cddbd v1.5.2PL0 Copyright (c) Steve Scherf et al.
# Submitted via: dBpowerAMP V12.0
#
DISCID=a2083d0c
DTITLE=The Po' Ramblin' Boys - Back To The Mountains
DYEAR=2015
DGENRE=Bluegrass
TTITLE0=I Can't Go On This Way
TTITLE1=Are You Homesick In Carolina
TTITLE2=The Honky Tonk Downstairs
TTITLE3=Messing With My Mind
TTITLE4=The Girl I Denied
TTITLE5=Back To The Mountains
TTITLE6=Late Last Night
TTITLE7=Remember Where You Came From
TTITLE8=I Believe In The Old Time Way
TTITLE9=Back Toward The Mountain
TTITLE10=Drive Myself To Drinkin'
TTITLE11=The Honky Tonk Downstairs (Bonus Country Version)
EXTD=
EXTT0=
EXTT1=
EXTT2=
EXTT3=
EXTT4=
EXTT5=
EXTT6=
EXTT7=
EXTT8=
EXTT9=
EXTT10=
EXTT11=
PLAYORDER=
